<svg xmlns="http://www.w3.org/2000/svg" width="1235" height="650" viewBox="0 0 1235 650"><defs><clipPath id="c" clipPathUnits="userSpaceOnUse"><path d="M0 0v9750L18525 0z" style="opacity:1;fill:#fff;fill-opacity:1;fill-rule:evenodd;stroke:none;stroke-width:41.7857132;stroke-linecap:butt;stroke-linejoin:miter;stroke-miterlimit:4;stroke-dasharray:none;stroke-opacity:1"/></clipPath><clipPath id="a"><path fill="#012169" d="M-.948-.947v31.2h52v-31.2z" style="stroke-width:1.04"/></clipPath></defs><g transform="translate(-229.825 -67.22)scale(.92857)"><path fill="#012169" d="M247.504 72.392v700h1330.002v-700z"/><path stroke-width="6" d="m-.948-.947 52 31.2m0-31.2-52 31.2" style="clip-path:url(#a);fill:#fff;stroke:#fff;stroke-width:6.24" transform="matrix(25.57647 0 0 22.4345 271.776 93.66)"/><path stroke="#c8102e" stroke-width="4" d="m-.949-.948 52.001 31.202m0-31.202L-.949 30.254" clip-path="url(#b)" transform="matrix(25.57647 0 0 22.4345 271.776 93.66)"/><path d="M-.948 9.453h20.8v-10.4h10.4v10.4h20.8v10.4h-20.8v10.4h-10.4v-10.4h-20.8z" style="stroke-width:0;fill:#fff" transform="matrix(25.57647 0 0 22.4345 271.776 93.66)"/><path d="M-.948 11.533h22.88V-.947h6.24v12.48h22.88v6.24h-22.88v12.48h-6.24v-12.48H-.948z" style="stroke-width:0;fill:#c8102e" transform="matrix(25.57647 0 0 22.4345 271.776 93.66)"/><g clip-path="url(#c)" style="stroke:none" transform="translate(247.504 72.392)scale(.0718)"><path fill="#b31942" d="M0 0h1235v650.002H0" style="stroke-width:.167" transform="matrix(15 0 0 15.0002 -.002 -.002)"/><path stroke="#fff" stroke-width="300" d="M0 75h1235m0 100H0m0 100.001h1235m0 100H0m0 100h1235m0 100H0" style="stroke-width:50" transform="matrix(15 0 0 15.0002 -.002 -.002)"/><path fill="#0a3161" d="M0 0h494.001v350.001H0" style="stroke-width:.167" transform="matrix(15 0 0 15.0002 -.002 -.002)"/><path fill="#fff" d="m617.5 225.002 176.335 542.713L332.182 432.3h570.635L441.164 767.715zm0 1050.016 176.335 542.713-461.653-335.415h570.635l-461.653 335.415zm0 1050.016 176.335 542.714-461.653-335.416h570.635l-461.653 335.416zm0 1050.016 176.335 542.714-461.653-335.415h570.635l-461.653 335.415zm0 1050.017 176.335 542.713-461.653-335.415h570.635L441.164 4967.78zM1235 750.01l176.336 542.713-461.653-335.415h570.635l-461.653 335.415zm0 1050.016 176.336 542.714-461.653-335.416h570.635l-461.653 335.416zm0 1050.016 176.336 542.714-461.653-335.416h570.635l-461.653 335.416zm0 1050.017 176.336 542.713-461.653-335.415h570.635l-461.653 335.415zm617.501-3675.057 176.336 542.713L1567.184 432.3h570.635l-461.653 335.415zm0 1050.016 176.336 542.713-461.653-335.415h570.635l-461.653 335.415zm0 1050.016 176.336 542.714-461.653-335.416h570.635l-461.653 335.416zm0 1050.016 176.336 542.714-461.653-335.415h570.635l-461.653 335.415zm0 1050.017 176.336 542.713-461.653-335.415h570.635l-461.653 335.415zM2470.002 750.01l176.336 542.713-461.653-335.415h570.635l-461.653 335.415zm0 1050.016 176.336 542.714-461.653-335.416h570.635l-461.653 335.416zm0 1050.016 176.336 542.714-461.653-335.416h570.635l-461.653 335.416zm0 1050.017 176.336 542.713-461.653-335.415h570.635l-461.653 335.415zm617.501-3675.057 176.336 542.713L2802.186 432.3h570.635l-461.653 335.415zm0 1050.016 176.336 542.713-461.653-335.415h570.635l-461.653 335.415zm0 1050.016 176.336 542.714-461.653-335.416h570.635l-461.653 335.416zm0 1050.016 176.336 542.714-461.653-335.415h570.635l-461.653 335.415zm0 1050.017 176.336 542.713-461.653-335.415h570.635l-461.653 335.415zM3705.004 750.01l176.336 542.713-461.653-335.415h570.635l-461.653 335.415zm0 1050.016 176.336 542.714-461.653-335.416h570.635l-461.653 335.416zm0 1050.016 176.336 542.714-461.653-335.416h570.635l-461.653 335.416zm0 1050.017 176.336 542.713-461.653-335.415h570.635l-461.653 335.415zm617.501-3675.057 176.336 542.713L4037.188 432.3h570.635l-461.654 335.415zm0 1050.016 176.336 542.713-461.653-335.415h570.635l-461.654 335.415zm0 1050.016 176.336 542.714-461.653-335.416h570.635l-461.654 335.416zm0 1050.016 176.336 542.714-461.653-335.415h570.635l-461.654 335.415zm0 1050.017 176.336 542.713-461.653-335.415h570.635l-461.654 335.415zM4940.006 750.01l176.336 542.713-461.653-335.415h570.635l-461.654 335.415zm0 1050.016 176.336 542.714-461.653-335.416h570.635L4763.67 2342.74zm0 1050.016 176.336 542.714-461.653-335.416h570.635l-461.654 335.416zm0 1050.017 176.336 542.713-461.653-335.415h570.635l-461.654 335.415zm617.501-3675.057 176.336 542.713L5272.19 432.3h570.635L5381.17 767.715zm0 1050.016 176.336 542.713-461.653-335.415h570.635l-461.654 335.415zm0 1050.016 176.336 542.714-461.653-335.416h570.635l-461.654 335.416zm0 1050.016 176.336 542.714-461.653-335.415h570.635l-461.654 335.415zm0 1050.017 176.336 542.713-461.653-335.415h570.635L5381.17 4967.78zM6175.008 750.01l176.336 542.713-461.653-335.415h570.635l-461.654 335.415zm0 1050.016 176.336 542.714-461.653-335.416h570.635l-461.654 335.416zm0 1050.016 176.336 542.714-461.653-335.416h570.635l-461.654 335.416zm0 1050.017 176.336 542.713-461.653-335.415h570.635l-461.654 335.415zM6792.51 225.002l176.335 542.713L6507.192 432.3h570.635l-461.654 335.415zm0 1050.016 176.335 542.713-461.653-335.415h570.635l-461.654 335.415zm0 1050.016 176.335 542.714-461.653-335.416h570.635l-461.654 335.416zm0 1050.016 176.335 542.714-461.653-335.415h570.635l-461.654 335.415zm0 1050.017 176.335 542.713-461.653-335.415h570.635l-461.654 335.415z"/></g><clipPath id="b"><path d="M25.053 14.653h25.999v15.601zm0 0v15.601H-.949zm0 0H-.949V-.948zm0 0V-.948h25.999z"/></clipPath></g></svg>