<svg xmlns="http://www.w3.org/2000/svg" width="299.992" height="221.516"><path fill-rule="evenodd" d="M0 0h299.992v221.516H0Zm6.813 10.098h25.289V35.39H6.812Zm52.207 0h25.3V35.39h-25.3Zm52.222 0h25.29V35.39h-25.29zm52.219 0h25.289V35.39h-25.29zm52.21 0h25.302V35.39h-25.301zm52.22 0h25.289V35.39h-25.29ZM6.812 186.128h25.29v25.294H6.812Zm52.208 0h25.3v25.294h-25.3Zm52.222 0h25.29v25.294h-25.29zm52.219 0h25.289v25.294h-25.29zm52.21 0h25.302v25.294h-25.301zm52.22 0h25.289v25.294h-25.29z"/><path d="M88.944 51.58c-5.203 29.312 1.099 49.663 9.713 72.384 10.673 28.04 30.816 48.276 52.207 61.515 12.893-8.094 25.953-20.929 35.961-34.527l1.498-1.78-.128-.116c4.932-6.938 9.031-14.038 11.858-20.756 10.818-25.67 15.483-47.524 12.835-76.72"/><path fill="#fff" d="M184.86 149.23c-3.394 4.757-7.025 9.354-11.043 13.574-7.516-7.151-15.327-14.176-22.664-21.391L127.75 163.44c-3.857-4.267-7.724-8.533-11.332-13.014 11.482-10.742 22.958-21.45 34.458-32.215 11.343 10.344 22.663 20.687 34.024 31.036M96.154 107.33c2.19 7.122 4.717 14.153 7.695 20.986 15.61-14.754 31.278-29.543 46.888-44.286 15.61 14.616 31.22 29.237 46.888 43.859 3-6.435 5.053-13.24 7.06-20.033l-54.29-53.248-54.23 52.727m-4.11-53.363c-1.521 8.788-2.157 17.709-1.66 26.595l27.734-26.595zm117.249 0h-25.728l26.468 26.653c.272-8.644.642-17.345-.422-25.97l-.29-.695"/><path fill="#da121a" d="m114.903 148.593 35.903-33.706 35.383 32.434c4.406-6.36 7.678-12.071 10.141-17.119l-45.79-42.899-45.847 43.339c3.018 6.614 6.417 12.777 10.175 17.98zm37.753-94.643 52.554 51.34c2.024-7.083 4.019-14.813 4.51-21.623L180.119 53.95m-29.14 90.827-21.738 20.41c6.747 7.226 13.772 12.256 21.392 17.68a173.5 173.5 0 0 0 21.392-18.34zm-3.295-90.827-52.438 50.82c-1.943-6.938-4.105-13.934-4.752-21.173l30.93-29.659"/></svg>