<?xml version="1.0" encoding="UTF-8" standalone="no"?>
<svg
   xmlns:dc="http://purl.org/dc/elements/1.1/"
   xmlns:cc="http://creativecommons.org/ns#"
   xmlns:rdf="http://www.w3.org/1999/02/22-rdf-syntax-ns#"
   xmlns:svg="http://www.w3.org/2000/svg"
   xmlns="http://www.w3.org/2000/svg"
   xmlns:sodipodi="http://sodipodi.sourceforge.net/DTD/sodipodi-0.dtd"
   xmlns:inkscape="http://www.inkscape.org/namespaces/inkscape"
   height="221.51559"
   width="299.99219"
   version="1.1"
   id="svg1130"
   sodipodi:docname="bielefeld_film_draft1.svg"
   inkscape:version="1.0.2 (e86c8708, 2021-01-15)">
  <metadata
     id="metadata1134">
    <rdf:RDF>
      <cc:Work
         rdf:about="">
        <dc:format>image/svg+xml</dc:format>
        <dc:type
           rdf:resource="http://purl.org/dc/dcmitype/StillImage" />
        <dc:title></dc:title>
      </cc:Work>
    </rdf:RDF>
  </metadata>
  <sodipodi:namedview
     pagecolor="#ffffff"
     bordercolor="#666666"
     borderopacity="1"
     objecttolerance="10"
     gridtolerance="10"
     guidetolerance="10"
     inkscape:pageopacity="0"
     inkscape:pageshadow="2"
     inkscape:window-width="2560"
     inkscape:window-height="1382"
     id="namedview1132"
     showgrid="false"
     fit-margin-top="0"
     fit-margin-left="0"
     fit-margin-right="0"
     fit-margin-bottom="0"
     inkscape:zoom="1.1133333"
     inkscape:cx="-503.49769"
     inkscape:cy="-48.676538"
     inkscape:window-x="12"
     inkscape:window-y="30"
     inkscape:window-maximized="0"
     inkscape:current-layer="svg1130" />
  <defs
     id="defs1064">
    <clipPath
       id="d">
      <path
         d="M 85,595 C 116,340 466,326 520,590 582,639 919,183 301,280 -275,182 16,629 85,595"
         id="path1061" />
    </clipPath>
  </defs>
  <path
     fill-rule="evenodd"
     fill="#000000"
     fill-opacity="1"
     d="M 0,0 H 299.9922 V 221.5156 H 0 Z M 183.3203,102.207 154.9297,85.8203 126.5508,69.4297 c -3.1406,-1.8125 -6.7383,-1.8125 -9.8789,0 -3.1407,1.8125 -4.9297,4.9257 -4.9297,8.5507 v 65.5547 c 0,3.625 1.789,6.7383 4.9297,8.5508 3.1406,1.8125 6.7383,1.8125 9.8789,0 l 28.3789,-16.3867 28.3906,-16.3906 c 3.1406,-1.8125 4.9297,-4.9258 4.9297,-8.5508 0,-3.625 -1.7891,-6.7383 -4.9297,-8.5508 z M 6.8125,10.0976 h 25.2891 v 25.293 H 6.8125 Z m 52.207,0 h 25.3008 v 25.293 H 59.0195 Z m 52.2227,0 h 25.289 v 25.293 h -25.289 z m 52.2187,0 H 188.75 v 25.293 h -25.2891 z m 52.211,0 h 25.3008 v 25.293 h -25.3008 z m 52.2187,0 h 25.2891 v 25.293 H 267.8906 Z M 6.8125,186.1289 h 25.2891 v 25.293 H 6.8125 Z m 52.207,0 h 25.3008 v 25.293 H 59.0195 Z m 52.2227,0 h 25.289 v 25.293 h -25.289 z m 52.2187,0 H 188.75 v 25.293 h -25.2891 z m 52.211,0 h 25.3008 v 25.293 h -25.3008 z m 52.2187,0 h 25.2891 v 25.293 h -25.2891 v -25.293"
     id="path1229" />
  <g
     transform="matrix(0.57815199,0,0,0.57815199,-53.68601,-192.97893)"
     id="g1124">
    <path
       d="m 246.7,423 c -9,50.7 1.9,85.9 16.8,125.2 18.46,48.5 53.3,83.5 90.3,106.4 22.3,-14 44.89,-36.2 62.2,-59.72 l 2.59,-3.08 -0.22,-0.2 c 8.53,-12 15.62,-24.28 20.51,-35.9 18.71,-44.4 26.78,-82.2 22.2,-132.7"
       id="path1118" />
    <path
       fill="#ffffff"
       d="m 412.6,591.9 c -5.87,8.23 -12.15,16.18 -19.1,23.48 -13,-12.37 -26.51,-24.52 -39.2,-37 l -40.48,38.1 c -6.67,-7.38 -13.36,-14.76 -19.6,-22.51 19.86,-18.58 39.71,-37.1 59.6,-55.72 19.62,17.89 39.2,35.78 58.85,53.68 m -153.5,-72.5 c 3.79,12.32 8.16,24.48 13.31,36.3 27,-25.52 54.1,-51.1 81.1,-76.6 27,25.28 54,50.57 81.1,75.86 5.19,-11.13 8.74,-22.9 12.21,-34.65 l -93.9,-92.1 -93.8,91.2 m -7.11,-92.3 c -2.63,15.2 -3.73,30.63 -2.87,46 l 47.97,-46 z m 202.8,0 h -44.5 l 45.78,46.1 c 0.47,-14.95 1.11,-30 -0.73,-44.92 l -0.5,-1.2"
       id="path1120" />
    <path
       fill="#da121a"
       d="m 291.6,590.8 62.1,-58.3 61.2,56.1 c 7.62,-11 13.28,-20.88 17.54,-29.61 l -79.2,-74.2 -79.3,74.96 c 5.22,11.44 11.1,22.1 17.6,31.1 z m 65.3,-163.7 90.9,88.8 c 3.5,-12.25 6.95,-25.62 7.8,-37.4 L 404.4,427.1 M 354,584.2 316.4,619.5 c 11.67,12.5 23.82,21.2 37,30.58 13.17,-9.54 25.58,-20.2 37,-31.72 z M 348.3,427.1 257.6,515 c -3.36,-12 -7.1,-24.1 -8.22,-36.62 l 53.5,-51.3"
       id="path1122" />
  </g>
</svg>
